<svg width="35" height="35" viewBox="0 0 35 35" fill="none" xmlns="http://www.w3.org/2000/svg">
<path d="M16.8771 3.75897C20.3399 3.75897 23.1641 6.53477 23.1641 9.9522V16.6336H14.6489C14.0387 16.6336 13.5561 17.1079 13.5561 17.7077C13.5561 18.2935 14.0387 18.7817 14.6489 18.7817H23.1641V25.4492C23.1641 28.8667 20.3399 31.6564 16.8487 31.6564H9.93718C6.46013 31.6564 3.63593 28.8806 3.63593 25.4632V9.96615C3.63593 6.53477 6.47433 3.75897 9.95137 3.75897H16.8771ZM26.7074 12.8957C27.1258 12.4633 27.8093 12.4633 28.2278 12.8817L32.3008 16.9408C32.51 17.15 32.6216 17.415 32.6216 17.708C32.6216 17.9869 32.51 18.2659 32.3008 18.4612L28.2278 22.5203C28.0186 22.7295 27.7396 22.8411 27.4746 22.8411C27.1956 22.8411 26.9166 22.7295 26.7074 22.5203C26.2889 22.1018 26.2889 21.4183 26.7074 20.9999L28.9392 18.782H23.1644V16.6339H28.9392L26.7074 14.4161C26.2889 13.9976 26.2889 13.3141 26.7074 12.8957Z" fill="white"/>
</svg>
