<svg width="33" height="33" viewBox="0 0 33 33" fill="none" xmlns="http://www.w3.org/2000/svg">
<path d="M21.5127 16.6817C21.5127 19.2591 19.4234 21.3484 16.846 21.3484C14.2687 21.3484 12.1794 19.2591 12.1794 16.6817C12.1794 14.1044 14.2687 12.0151 16.846 12.0151C19.4234 12.0151 21.5127 14.1044 21.5127 16.6817Z" stroke="black" stroke-width="2"/>
<path d="M28.8608 19.4771C29.5566 19.2895 29.9046 19.1956 30.042 19.0161C30.1794 18.8368 30.1794 18.5481 30.1794 17.9709V15.3927C30.1794 14.8155 30.1794 14.5268 30.042 14.3475C29.9045 14.168 29.5566 14.0741 28.8608 13.8865C26.2602 13.1852 24.6326 10.4664 25.3038 7.88288C25.4884 7.17237 25.5806 6.81713 25.4925 6.60877C25.4044 6.40041 25.1516 6.25684 24.6457 5.96967L22.3461 4.66403C21.8498 4.38224 21.6017 4.24135 21.379 4.27135C21.1562 4.30135 20.905 4.55203 20.4024 5.05336C18.4568 6.99436 15.2376 6.99428 13.2919 5.05324C12.7893 4.55189 12.5381 4.30123 12.3153 4.27121C12.0926 4.24121 11.8445 4.38211 11.3481 4.66389L9.04854 5.96955C8.5428 6.25669 8.28992 6.40027 8.2018 6.60859C8.11366 6.81692 8.20592 7.17221 8.39042 7.88279C9.06125 10.4664 7.43238 13.1852 4.83145 13.8865C4.13558 14.0741 3.78765 14.168 3.6502 14.3473C3.51276 14.5268 3.51276 14.8155 3.51276 15.3927V17.9709C3.51276 18.5481 3.51276 18.8368 3.6502 19.0161C3.78762 19.1956 4.13557 19.2895 4.83145 19.4771C7.43196 20.1784 9.05953 22.8972 8.38838 25.4807C8.20381 26.1912 8.11152 26.5464 8.19964 26.7548C8.28777 26.9632 8.54065 27.1068 9.04642 27.3939L11.346 28.6996C11.8424 28.9813 12.0905 29.1223 12.3133 29.0923C12.536 29.0623 12.7873 28.8115 13.2897 28.3101C15.2364 26.3676 18.4578 26.3675 20.4046 28.31C20.907 28.8115 21.1582 29.0621 21.381 29.0921C21.6037 29.1221 21.852 28.9812 22.3482 28.6995L24.6478 27.3937C25.1537 27.1067 25.4066 26.9631 25.4946 26.7547C25.5828 26.5463 25.4905 26.1911 25.3058 25.4805C24.6344 22.8972 26.2606 20.1785 28.8608 19.4771Z" stroke="black" stroke-width="2" stroke-linecap="round"/>
</svg>
