<svg width="33" height="33" viewBox="0 0 33 33" fill="none" xmlns="http://www.w3.org/2000/svg">
<path d="M12.8461 29.8458L12.8486 24.5093C12.8492 23.2685 12.8495 22.6481 13.0522 22.1588C13.3231 21.5049 13.8427 20.9854 14.4966 20.715C14.9862 20.5125 15.6066 20.5125 16.8474 20.5125C18.0886 20.5125 18.7093 20.5125 19.199 20.7152C19.8531 20.9858 20.3727 21.5054 20.6434 22.1596C20.8461 22.6493 20.8461 23.27 20.8461 24.5112V29.8458" stroke="black" stroke-width="2"/>
<path d="M10.2974 6.86241L8.96403 7.90314C6.94182 9.48158 5.93071 10.2708 5.38839 11.3836C4.84607 12.4964 4.84607 13.7819 4.84607 16.3529V19.1412C4.84607 24.1874 4.84607 26.7105 6.40816 28.2782C7.97027 29.8458 10.4844 29.8458 15.5127 29.8458H18.1794C23.2077 29.8458 25.7219 29.8458 27.2839 28.2782C28.8461 26.7105 28.8461 24.1874 28.8461 19.1412V16.3529C28.8461 13.7819 28.8461 12.4964 28.3038 11.3836C27.7614 10.2708 26.7503 9.48158 24.7281 7.90314L23.3947 6.86241C20.2489 4.40692 18.6759 3.17917 16.8461 3.17917C15.0162 3.17917 13.4432 4.40692 10.2974 6.86241Z" stroke="black" stroke-width="2" stroke-linejoin="round"/>
</svg>
