<svg width="33" height="33" viewBox="0 0 33 33" fill="none" xmlns="http://www.w3.org/2000/svg">
<path d="M20.8461 11.6561C20.8461 13.8652 19.0553 15.6561 16.8461 15.6561C14.6369 15.6561 12.8461 13.8652 12.8461 11.6561C12.8461 9.44696 14.6369 7.65609 16.8461 7.65609C19.0553 7.65609 20.8461 9.44696 20.8461 11.6561Z" stroke="black" stroke-width="2" stroke-linecap="round" stroke-linejoin="round"/>
<path d="M22.1794 6.32276C24.3884 6.32276 26.1794 8.11362 26.1794 10.3228C26.1794 11.9535 25.2034 13.3564 23.8038 13.9792" stroke="black" stroke-width="2" stroke-linecap="round" stroke-linejoin="round"/>
<path d="M19.1318 19.6561H14.5604C11.4044 19.6561 8.84607 22.2145 8.84607 25.3704C8.84607 26.6328 9.86942 27.6561 11.1318 27.6561H22.5604C23.8228 27.6561 24.8461 26.6328 24.8461 25.3704C24.8461 22.2145 22.2877 19.6561 19.1318 19.6561Z" stroke="black" stroke-width="2" stroke-linecap="round" stroke-linejoin="round"/>
<path d="M24.4651 18.3228C27.621 18.3228 30.1794 20.8812 30.1794 24.037C30.1794 25.2994 29.1561 26.3228 27.8937 26.3228" stroke="black" stroke-width="2" stroke-linecap="round" stroke-linejoin="round"/>
<path d="M11.5128 6.32276C9.30362 6.32276 7.51276 8.11362 7.51276 10.3228C7.51276 11.9535 8.48866 13.3564 9.88833 13.9792" stroke="black" stroke-width="2" stroke-linecap="round" stroke-linejoin="round"/>
<path d="M5.79848 26.3228C4.5361 26.3228 3.51276 25.2994 3.51276 24.037C3.51276 20.8812 6.07113 18.3228 9.22704 18.3228" stroke="black" stroke-width="2" stroke-linecap="round" stroke-linejoin="round"/>
</svg>
