<svg width="33" height="33" viewBox="0 0 33 33" fill="none" xmlns="http://www.w3.org/2000/svg">
<path d="M10.1794 23.3946V18.0612" stroke="black" stroke-width="2" stroke-linecap="round"/>
<path d="M16.8461 23.3946V10.0612" stroke="black" stroke-width="2" stroke-linecap="round"/>
<path d="M23.5128 23.3946V15.3946" stroke="black" stroke-width="2" stroke-linecap="round"/>
<path d="M4.17938 16.7279C4.17938 10.7568 4.17938 7.77121 6.03437 5.91621C7.88937 4.06122 10.8749 4.06122 16.846 4.06122C22.8171 4.06122 25.8027 4.06122 27.6578 5.91621C29.5127 7.77121 29.5127 10.7568 29.5127 16.7279C29.5127 22.699 29.5127 25.6846 27.6578 27.5396C25.8027 29.3946 22.8171 29.3946 16.846 29.3946C10.8749 29.3946 7.88937 29.3946 6.03437 27.5396C4.17938 25.6846 4.17938 22.699 4.17938 16.7279Z" stroke="black" stroke-width="2" stroke-linejoin="round"/>
</svg>
