<svg width="33" height="33" viewBox="0 0 33 33" fill="none" xmlns="http://www.w3.org/2000/svg">
<path d="M23.5128 2.87149V6.87149M10.1794 2.87149V6.87149" stroke="black" stroke-width="2" stroke-linecap="round" stroke-linejoin="round"/>
<path d="M18.1795 4.87149H15.5128C10.4845 4.87149 7.97033 4.87149 6.40822 6.43358C4.84613 7.99569 4.84613 10.5098 4.84613 15.5382V18.8715C4.84613 23.8998 4.84613 26.414 6.40822 27.976C7.97033 29.5382 10.4845 29.5382 15.5128 29.5382H18.1795C23.2077 29.5382 25.722 29.5382 27.284 27.976C28.8461 26.414 28.8461 23.8998 28.8461 18.8715V15.5382C28.8461 10.5098 28.8461 7.99569 27.284 6.43358C25.722 4.87149 23.2077 4.87149 18.1795 4.87149Z" stroke="black" stroke-width="2" stroke-linecap="round" stroke-linejoin="round"/>
<path d="M5.51282 11.5381H28.1795" stroke="black" stroke-width="2" stroke-linecap="round" stroke-linejoin="round"/>
<path d="M12.8461 20.8715C12.8461 20.8715 14.8461 21.5382 15.5128 23.5382C15.5128 23.5382 18.4148 18.2048 22.1795 16.8715" stroke="black" stroke-width="2" stroke-linecap="round" stroke-linejoin="round"/>
</svg>
