<svg width="33" height="33" viewBox="0 0 33 33" fill="none" xmlns="http://www.w3.org/2000/svg">
<path d="M15.5128 7.60986H24.8462" stroke="#0C7FDA" stroke-width="2" stroke-linecap="round" stroke-linejoin="round"/>
<path d="M14.1794 14.2769L20.1794 20.2769" stroke="#0C7FDA" stroke-width="2" stroke-linecap="round" stroke-linejoin="round"/>
<path d="M7.51282 15.6099V24.9432" stroke="#0C7FDA" stroke-width="2" stroke-linecap="round" stroke-linejoin="round"/>
<path d="M9.43874 15.4617C12.7115 15.4617 15.3647 12.8086 15.3647 9.53578C15.3647 6.26299 12.7115 3.60986 9.43874 3.60986C6.16594 3.60986 3.51282 6.26299 3.51282 9.53578C3.51282 12.8086 6.16594 15.4617 9.43874 15.4617Z" stroke="#0C7FDA" stroke-width="2"/>
<path d="M7.5128 30.2767C8.98556 30.2767 10.1795 29.0828 10.1795 27.61C10.1795 26.1373 8.98556 24.9434 7.5128 24.9434C6.04004 24.9434 4.84613 26.1373 4.84613 27.61C4.84613 29.0828 6.04004 30.2767 7.5128 30.2767Z" stroke="#0C7FDA" stroke-width="2"/>
<path d="M22.1795 24.9432C23.6522 24.9432 24.8462 23.7493 24.8462 22.2765C24.8462 20.8038 23.6522 19.6099 22.1795 19.6099C20.7067 19.6099 19.5128 20.8038 19.5128 22.2765C19.5128 23.7493 20.7067 24.9432 22.1795 24.9432Z" stroke="#0C7FDA" stroke-width="2"/>
<path d="M27.5128 10.2767C28.9856 10.2767 30.1795 9.08279 30.1795 7.61003C30.1795 6.13727 28.9856 4.94336 27.5128 4.94336C26.04 4.94336 24.8461 6.13727 24.8461 7.61003C24.8461 9.08279 26.04 10.2767 27.5128 10.2767Z" stroke="#0C7FDA" stroke-width="2"/>
</svg>
