<svg width="33" height="33" viewBox="0 0 33 33" fill="none" xmlns="http://www.w3.org/2000/svg">
<path d="M16.1794 19.6254C13.4506 19.4985 10.6905 20.1518 8.28285 21.5854C6.39649 22.7086 1.45058 25.0021 4.46297 27.8721C5.9345 29.2739 7.57341 30.2766 9.63392 30.2766H16.8461" stroke="black" stroke-width="2" stroke-linecap="round" stroke-linejoin="round"/>
<path d="M21.5128 9.60996C21.5128 12.9237 18.8265 15.61 15.5128 15.61C12.199 15.61 9.51276 12.9237 9.51276 9.60996C9.51276 6.29625 12.199 3.60995 15.5128 3.60995C18.8265 3.60995 21.5128 6.29625 21.5128 9.60996Z" stroke="black" stroke-width="2"/>
<path d="M24.8461 28.5623V30.2766M24.8461 28.5623C23.3037 28.5623 21.9449 27.8047 21.1478 26.6543M24.8461 28.5623C26.3885 28.5623 27.7473 27.8047 28.5444 26.6543M21.1478 26.6543L19.5133 27.7051M21.1478 26.6543C20.6765 25.9739 20.4017 25.1562 20.4017 24.2766C20.4017 23.397 20.6764 22.5794 21.1477 21.8991M28.5444 26.6543L30.1789 27.7051M28.5444 26.6543C29.0157 25.9739 29.2905 25.1562 29.2905 24.2766C29.2905 23.397 29.0158 22.5794 28.5445 21.8991M24.8461 19.9909C26.3886 19.9909 27.7476 20.7486 28.5445 21.8991M24.8461 19.9909C23.3036 19.9909 21.9446 20.7486 21.1477 21.8991M24.8461 19.9909V18.2766M28.5445 21.8991L30.1794 20.8481M21.1477 21.8991L19.5128 20.8481" stroke="black" stroke-width="2" stroke-linecap="round"/>
</svg>
