<svg width="33" height="33" viewBox="0 0 33 33" fill="none" xmlns="http://www.w3.org/2000/svg">
<path d="M30.1794 9.4664H26.4609C25.6594 9.4664 25.2586 9.46639 24.8808 9.35197C24.5029 9.23755 24.1694 9.01526 23.5025 8.57066C22.5022 7.90377 21.361 7.14299 20.7941 6.97135C20.2273 6.79973 19.6261 6.79973 18.4238 6.79973C16.7889 6.79973 15.735 6.79973 15 7.10421C14.2649 7.40869 13.6868 7.98676 12.5307 9.14288L11.5133 10.1603C11.2527 10.4209 11.1224 10.5511 11.042 10.6798C10.7439 11.1565 10.7769 11.7691 11.1246 12.2111C11.2184 12.3303 11.3619 12.4458 11.649 12.6768C12.71 13.5307 14.2397 13.4455 15.2005 12.479L16.8461 10.8235H18.1794L26.1794 18.8712C26.9158 19.612 26.9158 20.8129 26.1794 21.5537C25.443 22.2945 24.2492 22.2945 23.5128 21.5537L22.8461 20.883M22.8461 20.883L18.8461 16.8593M22.8461 20.883C23.5825 21.6238 23.5825 22.8249 22.8461 23.5656C22.1097 24.3064 20.9158 24.3064 20.1794 23.5656L18.8461 22.2244M18.8461 22.2244C19.5825 22.965 19.5825 24.1661 18.8461 24.9069C18.1097 25.6476 16.9158 25.6476 16.1794 24.9069L14.1794 22.8949M18.8461 22.2244L16.1794 19.5577M14.1794 22.8949L13.5128 22.2244M14.1794 22.8949C14.9158 23.6357 14.9158 24.8368 14.1794 25.5776C13.443 26.3182 12.2491 26.3182 11.5128 25.5776L7.74792 21.7342C6.97429 20.9445 6.58748 20.5497 6.09189 20.3413C5.5963 20.133 5.04353 20.133 3.93801 20.133H3.51276" stroke="black" stroke-width="2" stroke-linecap="round" stroke-linejoin="round"/>
<path d="M30.1794 20.133H26.8461" stroke="black" stroke-width="2" stroke-linecap="round"/>
<path d="M12.1794 9.46639H3.51276" stroke="black" stroke-width="2" stroke-linecap="round"/>
</svg>
