<svg width="33" height="33" viewBox="0 0 33 33" fill="none" xmlns="http://www.w3.org/2000/svg">
<path d="M20.8201 9.60504C20.8201 9.60504 21.4867 10.2717 22.1534 11.605C22.1534 11.605 24.271 8.27171 26.1534 7.60504" stroke="black" stroke-width="2" stroke-linecap="round" stroke-linejoin="round"/>
<path d="M14.1726 2.94608C10.8413 2.80504 8.26764 3.1888 8.26764 3.1888C6.64251 3.305 3.5281 4.2161 3.52812 9.53702C3.52815 14.8127 3.49367 21.3167 3.52812 23.9095C3.52812 25.4936 4.50895 29.1887 7.90383 29.3867C12.0303 29.6275 19.4631 29.6787 22.8734 29.3867C23.7863 29.3352 26.8257 28.6186 27.2103 25.3118C27.6089 21.886 27.5295 19.5052 27.5295 18.9386" stroke="black" stroke-width="2" stroke-linecap="round" stroke-linejoin="round"/>
<path d="M30.1793 9.60504C30.1793 13.2869 27.1917 16.2718 23.5062 16.2718C19.8207 16.2718 16.8331 13.2869 16.8331 9.60504C16.8331 5.92315 19.8207 2.93838 23.5062 2.93838C27.1917 2.93838 30.1793 5.92315 30.1793 9.60504Z" stroke="black" stroke-width="2" stroke-linecap="round"/>
<path d="M10.1534 17.6051H15.4867" stroke="black" stroke-width="2" stroke-linecap="round"/>
<path d="M10.1534 22.9384H20.8201" stroke="black" stroke-width="2" stroke-linecap="round"/>
</svg>
