<svg width="32" height="33" viewBox="0 0 32 33" fill="none" xmlns="http://www.w3.org/2000/svg">
<path d="M24.6667 23.1667V9.83333C24.6667 7.31917 24.6667 6.06209 23.8856 5.28105C23.1046 4.5 21.8475 4.5 19.3334 4.5H12.6667C10.1525 4.5 8.89547 4.5 8.11443 5.28105C7.33337 6.06209 7.33337 7.31917 7.33337 9.83333V23.1667C7.33337 25.6808 7.33337 26.9379 8.11443 27.7189C8.89547 28.5 10.1525 28.5 12.6667 28.5H19.3334C21.8475 28.5 23.1046 28.5 23.8856 27.7189C24.6667 26.9379 24.6667 25.6808 24.6667 23.1667Z" stroke="#0C7FDA" stroke-width="2"/>
<path d="M24.6666 8.5H25.3333C27.2189 8.5 28.1617 8.5 28.7476 9.08579C29.3333 9.67157 29.3333 10.6144 29.3333 12.5V21.8333C29.3333 23.7189 29.3333 24.6617 28.7476 25.2476C28.1617 25.8333 27.2189 25.8333 25.3333 25.8333H24.6666" stroke="#0C7FDA" stroke-width="2" stroke-linecap="round"/>
<path d="M7.33329 8.5H6.66663C4.78101 8.5 3.8382 8.5 3.25241 9.08579C2.66663 9.67157 2.66663 10.6144 2.66663 12.5V21.8333C2.66663 23.7189 2.66663 24.6617 3.25241 25.2476C3.8382 25.8333 4.78101 25.8333 6.66663 25.8333H7.33329" stroke="#0C7FDA" stroke-width="2" stroke-linecap="round"/>
<path d="M19.3333 11.1665H12.6666M19.3333 16.4998H12.6666M19.3333 21.8332H12.6666" stroke="#0C7FDA" stroke-width="2" stroke-linecap="round"/>
</svg>
