<svg width="32" height="33" viewBox="0 0 32 33" fill="none" xmlns="http://www.w3.org/2000/svg">
<path d="M11.3334 16.5C12.4379 16.5 13.3334 15.6046 13.3334 14.5C13.3334 13.3954 12.4379 12.5 11.3334 12.5C10.2288 12.5 9.33337 13.3954 9.33337 14.5C9.33337 15.6046 10.2288 16.5 11.3334 16.5Z" stroke="black" stroke-width="2"/>
<path d="M19.3334 23.1665C20.4379 23.1665 21.3334 22.2711 21.3334 21.1665C21.3334 20.0619 20.4379 19.1665 19.3334 19.1665C18.2288 19.1665 17.3334 20.0619 17.3334 21.1665C17.3334 22.2711 18.2288 23.1665 19.3334 23.1665Z" stroke="black" stroke-width="2"/>
<path d="M24.6666 12.5C25.7712 12.5 26.6666 11.6046 26.6666 10.5C26.6666 9.39543 25.7712 8.5 24.6666 8.5C23.5621 8.5 22.6666 9.39543 22.6666 10.5C22.6666 11.6046 23.5621 12.5 24.6666 12.5Z" stroke="black" stroke-width="2"/>
<path d="M20.5788 19.5617L24 12.5M12.7767 15.9245L17.6051 19.5617M4 25.8333L10.1194 16.3389" stroke="black" stroke-width="2" stroke-linecap="round" stroke-linejoin="round"/>
<path d="M26.6666 28.5H12C7.60019 28.5 5.40029 28.5 4.03347 27.1332C2.66663 25.7663 2.66663 23.5664 2.66663 19.1667V4.5" stroke="black" stroke-width="2" stroke-linecap="round"/>
</svg>
