<svg width="32" height="33" viewBox="0 0 32 33" fill="none" xmlns="http://www.w3.org/2000/svg">
<path d="M23.3334 3.1665H10.6667C7.72119 3.1665 5.33337 5.55432 5.33337 8.49984V24.4998C5.33337 27.4454 7.72119 29.8332 10.6667 29.8332H23.3334C26.2789 29.8332 28.6667 27.4454 28.6667 24.4998V8.49984C28.6667 5.55432 26.2789 3.1665 23.3334 3.1665Z" stroke="black" stroke-width="2"/>
<path d="M14.12 18.8212C13.2817 19.3828 11.0835 20.5296 12.4223 21.9645C13.0763 22.6655 13.8048 23.1668 14.7205 23.1668H19.9461C20.8619 23.1668 21.5904 22.6655 22.2444 21.9645C23.5832 20.5296 21.3851 19.3828 20.5467 18.8212C18.5807 17.5043 16.086 17.5043 14.12 18.8212Z" stroke="black" stroke-width="2"/>
<path d="M20 12.5002C20 13.973 18.8061 15.1668 17.3333 15.1668C15.8605 15.1668 14.6666 13.973 14.6666 12.5002C14.6666 11.0274 15.8605 9.8335 17.3333 9.8335C18.8061 9.8335 20 11.0274 20 12.5002Z" stroke="black" stroke-width="2"/>
<path d="M6.66671 8.5H3.33337M6.66671 16.5H3.33337M6.66671 24.5H3.33337" stroke="black" stroke-width="2" stroke-linecap="round" stroke-linejoin="round"/>
</svg>
