<svg width="32" height="33" viewBox="0 0 32 33" fill="none" xmlns="http://www.w3.org/2000/svg">
<path d="M2.66663 17.1667C2.66663 15.6939 3.86053 14.5 5.33329 14.5C7.54243 14.5 9.33329 16.2908 9.33329 18.5V23.8333C9.33329 26.0425 7.54243 27.8333 5.33329 27.8333C3.86053 27.8333 2.66663 26.6395 2.66663 25.1667V17.1667Z" stroke="black" stroke-width="2" stroke-linecap="round" stroke-linejoin="round"/>
<path d="M20.6383 10.9082L20.2832 12.055C19.9923 12.9947 19.8468 13.4645 19.9587 13.8356C20.0492 14.1357 20.2479 14.3945 20.5187 14.5648C20.8534 14.7752 21.3596 14.7752 22.3722 14.7752H22.9108C26.3376 14.7752 28.051 14.7752 28.8603 15.7896C28.9527 15.9054 29.035 16.0288 29.1062 16.1581C29.7287 17.2893 29.021 18.8133 27.6054 21.8613C26.3063 24.6584 25.6567 26.0569 24.4507 26.8801C24.334 26.9597 24.214 27.0349 24.0911 27.1053C22.8214 27.8332 21.2483 27.8332 18.1019 27.8332H17.4195C13.6076 27.8332 11.7017 27.8332 10.5176 26.6858C9.33337 25.5384 9.33337 23.6917 9.33337 19.9984V18.7002C9.33337 16.7593 9.33337 15.7889 9.67783 14.9006C10.0223 14.0124 10.6818 13.282 12.001 11.8213L17.4562 5.78059C17.593 5.62909 17.6614 5.55333 17.7218 5.50084C18.2847 5.01088 19.1536 5.06602 19.6459 5.62297C19.6987 5.68264 19.7563 5.76639 19.8715 5.93389C20.0518 6.19591 20.1419 6.32692 20.2206 6.4567C20.9238 7.61868 21.1366 8.99899 20.8144 10.3094C20.7784 10.4557 20.7318 10.6066 20.6383 10.9082Z" stroke="black" stroke-width="2" stroke-linecap="round" stroke-linejoin="round"/>
</svg>
