<svg width="33" height="33" viewBox="0 0 33 33" fill="none" xmlns="http://www.w3.org/2000/svg">
<path d="M20.8461 3.53857V5.53857C20.8461 7.42419 20.8461 8.367 21.4318 8.95279C22.0177 9.53857 22.9605 9.53857 24.8461 9.53857H26.8461" stroke="black" stroke-width="1.5" stroke-linecap="round" stroke-linejoin="round"/>
<path d="M6.17938 21.5382V10.8716C6.17938 7.10034 6.17938 5.21473 7.35096 4.04316C8.52253 2.87158 10.4081 2.87158 14.1794 2.87158H19.7415C20.2864 2.87158 20.559 2.87158 20.804 2.97308C21.049 3.07457 21.2418 3.26726 21.6271 3.65264L26.7316 8.75719C27.117 9.14257 27.3098 9.33526 27.4113 9.58029C27.5127 9.82531 27.5127 10.0978 27.5127 10.6428V21.5382C27.5127 25.3094 27.5127 27.195 26.3411 28.3666C25.1695 29.5382 23.2839 29.5382 19.5127 29.5382H14.1794C10.4081 29.5382 8.52253 29.5382 7.35096 28.3666C6.17938 27.195 6.17938 25.3094 6.17938 21.5382Z" stroke="black" stroke-width="1.5" stroke-linecap="round" stroke-linejoin="round"/>
<path d="M16.8461 14.8716V18.8716M16.8461 18.8716V22.8716M16.8461 18.8716H10.8461M16.8461 18.8716H22.8461M13.5127 22.8716H20.1794C21.4365 22.8716 22.065 22.8716 22.4555 22.481C22.8461 22.0905 22.8461 21.462 22.8461 20.2049V17.5382C22.8461 16.2812 22.8461 15.6526 22.4555 15.2621C22.065 14.8716 21.4365 14.8716 20.1794 14.8716H13.5127C12.2557 14.8716 11.6271 14.8716 11.2366 15.2621C10.8461 15.6526 10.8461 16.2812 10.8461 17.5382V20.2049C10.8461 21.462 10.8461 22.0905 11.2366 22.481C11.6271 22.8716 12.2557 22.8716 13.5127 22.8716Z" stroke="black" stroke-width="1.5" stroke-linecap="round" stroke-linejoin="round"/>
</svg>
