<svg width="801" height="129" viewBox="0 0 801 129" fill="none" xmlns="http://www.w3.org/2000/svg">
<path d="M774.233 114.168C768.643 114.168 764.154 112.052 760.8 107.685C757.312 103.318 755.626 96.9852 755.626 88.5531C755.626 79.9531 757.445 73.6207 760.95 69.1191C764.438 64.752 769.06 62.5012 774.784 62.5012C777.17 62.5012 779.256 62.7867 781.075 63.4922C782.894 64.1977 784.446 65.0375 785.697 66.1629C786.949 67.2883 788.067 68.5648 789.052 69.8246H789.469C789.335 68.8336 789.052 67.4227 788.768 65.6086C788.501 63.7777 788.351 61.7957 788.351 59.8305V43.9238H801.918V113.312H791.571L788.918 106.845H788.351C787.516 108.256 786.398 109.516 785.13 110.507C783.878 111.632 782.343 112.472 780.524 113.177C778.705 113.748 776.603 114.168 774.233 114.168ZM474.259 62.3668C480.967 62.3668 486.007 63.7777 489.494 66.734C492.999 69.6902 494.818 74.0406 494.818 79.9531V113.177H485.439L482.786 106.425H482.369C480.967 108.256 479.565 109.667 478.03 110.792C476.495 111.918 474.809 112.757 472.99 113.329C471.038 113.883 468.802 114.168 465.998 114.168C463.061 114.168 460.408 113.597 458.172 112.472C455.802 111.346 453.983 109.667 452.715 107.265C451.313 104.88 450.763 101.923 450.763 98.3961C450.763 93.0547 452.582 89.2418 456.353 86.7223C459.991 84.1859 465.581 82.775 472.99 82.4895L481.534 82.2039V79.9531C481.534 77.2824 480.833 75.4516 479.432 74.1918C478.03 72.9152 476.211 72.3609 473.691 72.3609C471.322 72.3609 468.935 72.6465 466.699 73.3352C464.463 74.0406 462.093 74.8973 459.857 75.8715L455.368 66.734C458.038 65.323 460.975 64.1977 464.179 63.4922C467.4 62.7867 470.754 62.3668 474.259 62.3668ZM687.658 88.2676C687.658 92.4836 687.108 96.1453 685.99 99.3871C684.872 102.629 683.32 105.3 681.083 107.55C678.997 109.801 676.478 111.498 673.391 112.623C670.47 113.748 667.099 114.303 663.328 114.303C659.84 114.303 656.62 113.748 653.683 112.623C650.746 111.498 648.226 109.801 646.123 107.55C644.037 105.3 642.352 102.629 641.234 99.3871C640.116 96.1453 639.415 92.4836 639.415 88.2676C639.415 82.775 640.399 77.9879 642.352 74.1918C644.304 70.3957 647.108 67.4395 650.746 65.4574C654.383 63.4922 658.706 62.5012 663.612 62.5012C668.217 62.5012 672.423 63.4922 675.91 65.4574C679.548 67.4395 682.352 70.3957 684.454 74.1918C686.69 77.9879 687.658 82.6406 687.658 88.2676ZM778.989 103.318C782.627 103.318 785.28 102.192 786.815 99.9414C788.351 97.6906 789.185 94.4656 789.185 89.9473V88.5531C789.185 83.766 788.501 79.9531 786.949 77.4336C785.414 74.8973 782.76 73.6207 778.705 73.6207C775.768 73.6207 773.399 74.8973 771.713 77.568C770.028 80.1043 769.193 83.9004 769.193 88.8219C769.193 93.7602 770.028 97.4219 771.713 99.807C773.399 102.058 775.902 103.318 778.989 103.318ZM170.363 33.9297C168.544 33.9297 166.875 34.0641 165.056 34.2152C160.3 24.7754 153.158 16.7633 144.497 10.8508C143.663 10.2797 142.678 10.5652 142.261 11.5395L92.0481 127.539C91.6309 128.379 92.3318 129.504 93.3163 129.504H171.898C197.363 128.664 217.638 107.55 217.638 81.784C217.772 55.3289 196.512 33.9297 170.363 33.9297ZM75.127 129.37C76.8124 129.37 78.3476 128.379 79.0485 126.833L131.214 6.33242C131.764 5.20704 131.063 3.94726 129.945 3.52734C123.371 1.27656 116.378 0 109.119 0C79.7494 0 54.9851 20.4082 48.1433 47.8711C45.757 47.4344 43.3873 47.1656 41.001 47.1656C18.3561 47.1656 0.0332031 65.5918 0.0332031 88.402C0.0332031 111.212 18.6398 129.504 41.2847 129.504L75.127 129.37ZM81.4181 103.049L33.4583 81.6496V74.7461L81.4181 50.5418V62.2156L48.2768 77.7023L81.4181 91.3582V103.049ZM133.3 91.3582L166.458 77.7023L133.3 62.2156V50.5418L181.41 74.7461V81.6496L133.3 103.049V91.3582ZM259.023 43.7895V57.8652C259.023 60.4016 258.89 62.6524 258.756 64.9031C258.606 67.1539 258.473 68.6992 258.339 69.6902H259.023C260.141 67.9938 261.409 66.5828 262.811 65.4574C264.213 64.332 265.882 63.6266 267.701 63.0723C269.52 62.5012 271.339 62.3668 273.441 62.3668C277.062 62.3668 280.15 62.9211 282.803 64.1977C285.456 65.4574 287.559 67.4227 288.961 70.1102C290.496 72.7809 291.197 76.2914 291.197 80.5242V113.043H277.63V83.9004C277.63 80.373 276.929 77.7023 275.677 75.8715C274.409 74.0406 272.323 73.2008 269.653 73.2008C267 73.2008 264.764 73.7719 263.228 75.0316C261.693 76.2914 260.575 78.1223 259.874 80.6586C259.173 83.1949 258.89 86.1512 258.89 89.6785V113.177H245.323V43.7895H259.023ZM350.638 63.341V113.177H340.275L338.456 106.845H337.772C336.653 108.541 335.385 109.936 333.716 110.927C332.164 112.052 330.346 112.757 328.393 113.329C326.441 113.883 324.472 114.017 322.386 114.017C318.881 114.017 315.811 113.463 313.157 112.186C310.487 110.927 308.535 108.961 307 106.274C305.598 103.603 304.764 100.093 304.764 95.8598V63.341H318.331V92.4836C318.331 96.0109 319.031 98.6816 320.283 100.513C321.535 102.343 323.637 103.183 326.29 103.183C329.094 103.183 331.197 102.629 332.732 101.352C334.267 100.093 335.385 98.2617 336.086 95.7254C336.787 93.3234 337.071 90.2328 337.071 86.7223V63.341H350.638ZM422.928 62.3668C428.518 62.3668 432.723 63.7777 435.66 66.734C438.597 69.6902 439.999 74.3262 439.999 80.6586V113.177H426.432V84.0348C426.432 80.5242 425.865 77.8535 424.613 76.0227C423.345 74.1918 421.526 73.3352 419.023 73.3352C415.385 73.3352 412.865 74.6117 411.33 77.148C409.778 79.6844 409.094 83.3461 409.094 88.1164V113.177H395.527V84.0348C395.527 81.6496 395.243 79.6844 394.676 78.1223C394.125 76.577 393.291 75.3172 392.306 74.4605C391.188 73.6207 389.786 73.2008 388.101 73.2008C385.598 73.2008 383.629 73.7719 382.227 75.0316C380.842 76.2914 379.724 78.1223 379.156 80.6586C378.606 83.0605 378.322 86.1512 378.322 89.6785V113.177H364.755V63.341H375.101L376.92 69.6902H377.621C378.606 67.9938 379.857 66.5828 381.393 65.4574C382.928 64.332 384.613 63.6266 386.432 63.0723C388.251 62.5012 390.07 62.3668 392.023 62.3668C395.66 62.3668 398.731 62.9211 401.251 64.1977C403.771 65.3231 405.723 67.2883 407.125 69.6902H408.393C409.928 67.1539 412.031 65.323 414.684 64.0465C417.337 63.0723 420.141 62.3668 422.928 62.3668ZM481.384 90.0984L476.211 90.2328C471.872 90.384 468.802 91.0727 467.116 92.6348C465.448 94.0289 464.613 96.0109 464.613 98.3961C464.613 100.512 465.164 101.923 466.432 102.898C467.684 103.754 469.219 104.174 471.171 104.174C474.108 104.174 476.495 103.334 478.447 101.638C480.416 99.9414 481.384 97.4219 481.384 94.3145V90.0984ZM536.903 62.3668C542.227 62.3668 546.415 63.7777 549.636 66.734C552.857 69.6902 554.525 74.3262 554.525 80.6586V113.177H540.958V84.0348C540.958 80.5242 540.258 77.8535 539.006 76.0227C537.754 74.1918 535.652 73.3352 532.999 73.3352C528.793 73.3352 526.006 74.7461 524.455 77.568C522.919 80.3898 522.218 84.4715 522.218 89.8129V113.329H508.651V63.3578H519.014L520.833 69.6902H521.518C522.636 67.9938 523.904 66.5828 525.439 65.4574C526.974 64.332 528.793 63.6266 530.746 63.0723C532.715 62.6523 534.818 62.3668 536.903 62.3668ZM588.518 114.168C583.612 114.168 579.423 113.312 575.919 111.498C572.431 109.667 569.778 106.845 568.092 103.183C566.273 99.3871 565.439 94.6 565.439 88.6875C565.439 82.6406 566.424 77.568 568.51 73.7719C570.612 69.959 573.416 67.1539 577.037 65.3231C580.675 63.4922 584.88 62.6523 589.769 62.6523C593.274 62.6523 596.211 62.9211 598.714 63.6266C601.234 64.332 603.336 65.0375 605.289 66.0285L601.234 76.577C599.131 75.7371 597.179 75.0316 595.36 74.4773C593.541 73.9062 591.722 73.6207 589.903 73.6207C587.533 73.6207 585.581 74.1918 584.029 75.3172C582.494 76.4426 581.242 78.1223 580.541 80.3898C579.84 82.6406 579.423 85.4457 579.423 88.8219C579.423 92.0637 579.84 94.8856 580.675 96.9852C581.526 99.1016 582.644 100.798 584.313 101.772C585.848 102.898 587.817 103.334 590.053 103.334C592.84 103.334 595.36 102.898 597.596 102.192C599.832 101.504 601.935 100.378 604.037 98.9672V110.641C601.935 111.918 599.832 112.892 597.596 113.463C594.809 113.883 591.872 114.168 588.518 114.168ZM614.934 113.177H628.501V43.7895H614.934V113.177ZM653.532 88.2676C653.532 91.5094 653.966 94.3145 654.667 96.5652C655.351 98.816 656.469 100.513 658.021 101.638C659.557 102.763 661.509 103.318 663.895 103.318C666.265 103.318 668.217 102.763 669.769 101.638C671.305 100.513 672.272 98.816 672.973 96.5652C673.674 94.3145 673.958 91.6438 673.958 88.2676C673.958 85.0258 673.674 82.2039 672.973 80.1043C672.272 77.8535 671.154 76.2914 669.619 75.166C668.084 74.0406 666.131 73.4863 663.745 73.4863C660.107 73.4863 657.587 74.7461 655.919 77.148C654.233 79.5332 653.532 83.1949 653.532 88.2676ZM744.296 63.341V113.177H733.949L732.13 106.845H731.43C730.312 108.541 729.06 109.936 727.375 110.927C725.839 112.052 724.02 112.757 722.068 113.312C720.115 113.883 718.146 114.017 716.06 114.017C712.556 114.017 709.486 113.463 706.816 112.186C704.162 110.927 702.21 108.961 700.675 106.274C699.273 103.603 698.438 100.093 698.438 95.8598V63.341H711.989V92.4836C711.989 96.0109 712.69 98.6816 713.958 100.513C715.209 102.343 717.312 103.183 719.965 103.183C722.769 103.183 724.855 102.629 726.407 101.352C727.942 100.093 729.06 98.2617 729.761 95.7254C730.462 93.3234 730.729 90.2328 730.729 86.7223V63.341H744.296Z" fill="white"/>
</svg>
