<svg width="32" height="33" viewBox="0 0 32 33" fill="none" xmlns="http://www.w3.org/2000/svg">
<path d="M2.66663 16.5C2.66663 13.1907 3.35729 12.5 6.66663 12.5H9.33329C12.6426 12.5 13.3333 13.1907 13.3333 16.5C13.3333 19.8093 12.6426 20.5 9.33329 20.5H6.66663C3.35729 20.5 2.66663 19.8093 2.66663 16.5Z" stroke="black" stroke-width="2"/>
<path d="M18.6666 9.8335C18.6666 6.52416 19.3573 5.8335 22.6666 5.8335H25.3333C28.6426 5.8335 29.3333 6.52416 29.3333 9.8335C29.3333 13.1428 28.6426 13.8335 25.3333 13.8335H22.6666C19.3573 13.8335 18.6666 13.1428 18.6666 9.8335Z" stroke="black" stroke-width="2"/>
<path d="M18.6666 23.1665C18.6666 19.8572 19.3573 19.1665 22.6666 19.1665H25.3333C28.6426 19.1665 29.3333 19.8572 29.3333 23.1665C29.3333 26.4758 28.6426 27.1665 25.3333 27.1665H22.6666C19.3573 27.1665 18.6666 26.4758 18.6666 23.1665Z" stroke="black" stroke-width="2"/>
<path d="M18.6666 9.8335L14.6666 16.5002L18.6666 23.1668" stroke="black" stroke-width="2" stroke-linecap="round" stroke-linejoin="round"/>
</svg>
