<svg width="32" height="32" viewBox="0 0 32 32" fill="none" xmlns="http://www.w3.org/2000/svg">
<path d="M3.37321 19.6928C3.08967 21.5515 4.35731 22.8416 5.90938 23.4845C11.8597 25.9496 20.1402 25.9496 26.0905 23.4845C27.6426 22.8416 28.9103 21.5515 28.6268 19.6928C28.4525 18.5505 27.5909 17.5993 26.9525 16.6705C26.1164 15.4391 26.0333 14.0957 26.0332 12.6667C26.0332 7.1438 21.5412 2.66666 16 2.66666C10.4588 2.66666 5.96682 7.1438 5.96682 12.6667C5.96669 14.0957 5.88361 15.4391 5.04746 16.6705C4.4091 17.5993 3.54746 18.5505 3.37321 19.6928Z" stroke="black" stroke-width="2" stroke-linecap="round" stroke-linejoin="round"/>
<path d="M10.6667 25.3333C11.278 27.6336 13.434 29.3333 16 29.3333C18.566 29.3333 20.722 27.6336 21.3334 25.3333" stroke="black" stroke-width="2" stroke-linecap="round" stroke-linejoin="round"/>
</svg>
