<svg width="32" height="33" viewBox="0 0 32 33" fill="none" xmlns="http://www.w3.org/2000/svg">
<path d="M8.66663 23.8335V19.8335M15.3333 23.8335V11.8335M22 23.8335V18.5002" stroke="black" stroke-width="2" stroke-linecap="round"/>
<path d="M28.6666 7.8335C28.6666 10.0426 26.8758 11.8335 24.6666 11.8335C22.4574 11.8335 20.6666 10.0426 20.6666 7.8335C20.6666 5.62436 22.4574 3.8335 24.6666 3.8335C26.8758 3.8335 28.6666 5.62436 28.6666 7.8335Z" stroke="black" stroke-width="2"/>
<path d="M28.6607 15.1668C28.6607 15.1668 28.6667 15.6195 28.6667 16.5002C28.6667 22.4714 28.6667 25.4568 26.8118 27.3119C24.9567 29.1668 21.9711 29.1668 16 29.1668C10.0289 29.1668 7.04336 29.1668 5.18836 27.3119C3.33337 25.4568 3.33337 22.4714 3.33337 16.5002C3.33337 10.5291 3.33337 7.54352 5.18836 5.68852C7.04336 3.83354 10.0289 3.83354 16 3.83354L17.3334 3.8335" stroke="black" stroke-width="2" stroke-linecap="round" stroke-linejoin="round"/>
</svg>
