<svg width="610" height="591" viewBox="0 0 610 591" fill="none" xmlns="http://www.w3.org/2000/svg">
<g clip-path="url(#clip0_694_1659)">
<path d="M610 0H0V591H610V0Z" fill="white"/>
<path opacity="0.3" d="M288.805 293.18H165.075C161.061 293.18 157.806 296.333 157.806 300.223V350.168C157.806 354.057 161.061 357.211 165.075 357.211H177.924C177.178 362.709 176.202 370.596 176.737 370.596C177.307 370.596 183.543 362.299 187.312 357.211H288.805C292.82 357.211 296.074 354.057 296.074 350.168V300.223C296.075 296.333 292.82 293.18 288.805 293.18Z" fill="#DAEEF7"/>
<path d="M294.721 279.904H170.99C166.976 279.904 163.721 283.057 163.721 286.947V336.892C163.721 340.781 166.976 343.935 170.99 343.935H183.839C183.093 349.433 182.117 357.32 182.652 357.32C183.222 357.32 189.458 349.023 193.228 343.935H294.72C298.735 343.935 301.989 340.781 301.989 336.892V286.947C301.99 283.057 298.735 279.904 294.721 279.904Z" fill="#5FB2F6"/>
<path d="M200.559 324.58C207.675 317.685 207.675 306.506 200.559 299.611C193.442 292.716 181.904 292.717 174.787 299.611C167.671 306.506 167.671 317.685 174.787 324.58C181.904 331.475 193.442 331.475 200.559 324.58Z" fill="white"/>
<path d="M190.56 320.993H185.209V326.169H190.56V320.993Z" fill="#FFC0BB"/>
<path d="M190.56 324.096V320.993H185.209V323.633C186.361 324.231 188.067 324.576 190.56 324.096Z" fill="#F99893"/>
<path d="M198.997 311.728C198.439 311.462 197.791 311.509 197.204 311.797C197.406 306.69 193.1 302.394 187.677 302.575C182.253 302.394 177.948 306.69 178.149 311.797C177.562 311.509 176.914 311.462 176.356 311.728C175.285 312.239 174.952 313.704 175.612 314.999C176.273 316.294 177.676 316.929 178.748 316.419C178.896 316.348 179.029 316.257 179.149 316.152C179.763 320.374 183.404 323.54 187.677 323.481C191.949 323.54 195.59 320.374 196.204 316.152C196.324 316.257 196.457 316.348 196.605 316.419C197.677 316.929 199.08 316.294 199.741 314.999C200.401 313.704 200.068 312.239 198.997 311.728Z" fill="#FFC0BB"/>
<path d="M181.161 300.552C181.161 300.552 183.846 298.35 189.95 298.705C196.053 299.061 197.215 302.147 197.561 306.554L197.204 311.797C197.204 311.797 195.62 310.219 193.556 305.841C193.556 305.841 190.138 309.557 188.65 309.117C187.161 308.677 189.213 306.002 189.213 306.002C189.213 306.002 182.25 311.806 178.149 311.797C178.149 311.797 175.979 305.004 179.025 302.512C179.025 302.512 176.73 302.618 176.609 302.181C176.487 301.744 177.703 301.089 179.909 301.336C179.909 301.336 178.337 298.358 179.215 298.048C180.093 297.738 181.161 300.552 181.161 300.552Z" fill="#07085B"/>
<path d="M191.178 317.761C190.943 318.785 189.733 319.59 188.25 319.634C186.767 319.678 185.509 318.946 185.209 317.938L191.178 317.761Z" fill="white"/>
<path d="M283.982 297.365H212.889C212.493 297.365 212.171 297.053 212.171 296.67V294.992C212.171 294.608 212.493 294.297 212.889 294.297H283.982C284.379 294.297 284.7 294.608 284.7 294.992V296.67C284.7 297.054 284.379 297.365 283.982 297.365Z" fill="white"/>
<path d="M228.583 305.461H212.889C212.493 305.461 212.171 305.149 212.171 304.765V303.088C212.171 302.704 212.493 302.392 212.889 302.392H228.583C228.979 302.392 229.3 302.704 229.3 303.088V304.765C229.3 305.149 228.979 305.461 228.583 305.461Z" fill="white"/>
<path d="M283.983 305.461H236.482C236.085 305.461 235.764 305.149 235.764 304.765V303.088C235.764 302.704 236.085 302.392 236.482 302.392H283.983C284.379 302.392 284.7 302.704 284.7 303.088V304.765C284.7 305.149 284.379 305.461 283.983 305.461Z" fill="white"/>
<path d="M248.922 313.556H212.889C212.493 313.556 212.171 313.245 212.171 312.861V311.183C212.171 310.8 212.493 310.488 212.889 310.488H248.922C249.319 310.488 249.64 310.8 249.64 311.183V312.861C249.64 313.245 249.319 313.556 248.922 313.556Z" fill="white"/>
<path d="M283.982 313.556H255.838C255.442 313.556 255.12 313.245 255.12 312.861V311.183C255.12 310.8 255.441 310.488 255.838 310.488H283.982C284.378 310.488 284.7 310.799 284.7 311.183V312.861C284.7 313.245 284.379 313.556 283.982 313.556Z" fill="white"/>
<path d="M283.982 321.652H212.889C212.493 321.652 212.171 321.341 212.171 320.956V319.279C212.171 318.895 212.493 318.584 212.889 318.584H283.982C284.379 318.584 284.7 318.895 284.7 319.279V320.956C284.7 321.341 284.379 321.652 283.982 321.652Z" fill="white"/>
<path d="M355.015 216.653L359.523 244.046L369.047 207.524C369.047 207.524 355.699 201.248 355.11 203.53C354.521 205.813 355.015 216.653 355.015 216.653Z" fill="#07085B"/>
<path d="M430.784 275.611L434.906 322.968L391.774 320.971L396.747 279.034L430.784 275.611Z" fill="#FFC0BB"/>
<path d="M394.382 298.978L396.747 279.034L430.784 275.611L432.212 292.011C425.445 298.544 413.274 305.317 394.382 298.978Z" fill="#F99893"/>
<path d="M367.935 243.703C370.528 248.9 369.152 254.742 364.861 256.752C360.57 258.763 354.989 256.179 352.396 250.983C349.802 245.786 351.178 239.944 355.469 237.934C359.76 235.923 365.341 238.507 367.935 243.703Z" fill="#F99893"/>
<path d="M367.622 267.73C364.536 261.029 362.729 253.825 361.676 247.51C361.45 246.154 361.143 244.815 360.811 243.481C359.469 238.092 359.112 232.314 360.043 226.291C363.042 206.914 379.132 191.465 399.165 188.782C426.153 185.168 449.928 204.527 451.607 230.169C454.382 228.443 457.591 227.887 460.516 228.943C466.129 230.97 468.559 238.123 465.944 244.921C463.329 251.718 456.659 255.586 451.046 253.559C450.267 253.277 449.556 252.889 448.904 252.424C448.038 274.383 430.689 292.358 408.536 293.363C397.702 293.855 387.623 290.196 379.798 283.787C374.784 280.218 370.052 273.274 367.622 267.73Z" fill="#FFC0BB"/>
<path d="M395.273 233.191C395.185 235.75 395.165 238.246 395.028 240.692C394.872 242.955 394.616 246.207 393.162 247.931C392.945 248.227 391.804 249.422 391.777 251.239C391.717 252.931 392.639 254.445 393.788 255.372C396.143 257.29 399.194 257.473 401.72 256.87C399.143 256.429 396.673 255.57 395.235 253.94C394.569 253.129 394.128 252.224 394.282 251.376C394.397 250.4 394.957 249.892 395.159 249.596C395.876 248.677 396.737 247.72 397.105 244.594C397.234 243.252 397.215 241.949 397.088 240.657C396.832 238.085 396.265 235.574 395.273 233.191Z" fill="#F99893"/>
<path d="M410.562 236.572C410.665 238.723 412.549 240.384 414.768 240.283C416.987 240.183 418.702 238.358 418.599 236.208C418.495 234.058 416.611 232.396 414.392 232.497C412.173 232.598 410.458 234.422 410.562 236.572Z" fill="#333333"/>
<path d="M376.157 240.331C376.261 242.481 378.145 244.143 380.364 244.042C382.583 243.941 384.298 242.116 384.194 239.966C384.091 237.816 382.207 236.154 379.988 236.255C377.768 236.356 376.053 238.18 376.157 240.331Z" fill="#333333"/>
<path d="M417.309 262.962C413.214 266.421 407.887 269.122 402.596 269.742C396.874 270.442 391.821 268.752 386.951 265.845C391.485 269.536 396.737 271.406 402.725 270.757C408.555 270.022 414.006 266.767 417.309 262.962Z" fill="#F99893"/>
<path d="M405.511 227.77C411.181 226.073 414.39 225.978 416.981 226.284C422.634 227.018 425.815 229.441 427.79 230.28C425.412 226.033 421.755 223.769 417.337 223.234C412.552 222.677 407.871 224.772 405.511 227.77Z" fill="#07085B"/>
<path d="M387.789 229.704C384.883 227.215 379.875 226.028 375.279 227.479C371.065 228.83 367.923 231.731 366.437 236.357C368.21 235.159 370.836 232.189 376.239 230.403C378.712 229.618 381.876 229.104 387.789 229.704Z" fill="#07085B"/>
<path d="M386.956 304.083C386.956 304.083 346.364 309.077 336.055 317.192C325.746 325.307 276.135 444.536 276.135 444.536L317.37 491.355L404.996 491.979C404.996 491.979 470.716 526.312 511.951 493.851C553.187 461.391 531.925 348.404 508.085 324.058C484.246 299.713 441.721 300.337 441.721 300.337C441.721 300.337 403.064 326.555 386.956 304.083Z" fill="#0C7FDA"/>
<path d="M465.561 363.385C464.109 369.882 463.221 376.48 462.589 383.096C462.239 386.404 462.088 389.726 461.891 393.047C461.788 396.373 461.708 399.699 461.756 403.03C461.89 409.686 462.266 416.365 463.448 422.955C464.601 429.521 466.278 436.107 469.427 442.039C467.309 435.711 466.258 429.207 465.497 422.685C464.749 416.158 464.491 409.575 464.404 402.996C464.263 396.414 464.429 389.819 464.645 383.22C464.886 376.621 465.197 370.017 465.561 363.385Z" fill="white"/>
<path d="M344.109 359.015C342.255 368.687 340.291 378.32 338.295 387.939C336.256 397.549 334.148 407.14 331.747 416.655C329.374 426.175 326.736 435.631 323.545 444.902C321.947 449.538 320.162 454.109 318.07 458.548C316.007 462.996 313.562 467.302 310.283 471.066C314.012 467.693 316.756 463.417 319.233 459.109C321.635 454.741 323.707 450.205 325.492 445.579C327.316 440.965 328.88 436.263 330.363 431.544C331.792 426.809 333.101 422.044 334.321 417.26C335.485 412.463 336.602 407.657 337.604 402.83C338.571 397.996 339.522 393.16 340.322 388.299C341.98 378.59 343.269 368.821 344.109 359.015Z" fill="white"/>
<path d="M323.711 464.371C323.969 462.395 339.455 460.188 345.147 459.903C349.46 459.687 378.048 458.762 387.772 458.336L387.058 460.758L387.205 471.456L388.802 478.546C380.27 479.069 359.415 479.86 355.072 480.693C349.271 481.804 339.209 486.042 339.209 486.042C339.209 486.042 335.024 485.12 340.342 482.897C344.611 481.112 347.609 478.345 348.877 476.972C349.607 476.181 348.815 474.773 348.285 474.908C333.806 478.584 332.317 479.192 332.317 479.192C332.317 479.192 315.299 479.099 332.22 475.394C342.364 473.172 345.998 471.882 346.902 470.779C347.286 470.309 346.599 468.712 345.982 468.675C337.194 468.15 321.422 471.167 325.742 469.188C329.265 467.574 340.36 465.804 344.676 465.138C344.94 465.097 345.368 463.54 344.19 463.445C335.82 462.769 323.472 466.207 323.711 464.371Z" fill="#FFC0BB"/>
<path d="M464.81 442.93C461.258 443.75 457.653 444.349 454.085 445.077C446.901 446.346 439.696 447.452 432.47 448.434C425.235 449.354 417.99 450.201 410.726 450.88C403.49 451.576 396.131 452.173 388.97 452.56L388.005 452.613L387.794 453.421C387.179 455.774 386.778 458.07 386.472 460.423C386.168 462.766 386.042 465.129 386.045 467.494C386.066 469.86 386.276 472.228 386.678 474.571C387.123 476.91 387.837 479.203 388.799 481.398L388.882 481.588L389.038 481.69L396.997 486.862C399.648 488.588 402.31 490.3 404.997 491.978C402.502 490.041 399.983 488.138 397.453 486.249L390.051 480.712C389.284 478.639 388.739 476.494 388.439 474.303C388.158 472.056 388.029 469.787 388.098 467.513C388.176 465.24 388.408 462.972 388.736 460.717C389.034 458.762 389.427 456.787 389.925 454.898C393.36 454.789 396.651 454.572 400.022 454.335C403.681 454.073 407.338 453.792 410.987 453.42C418.285 452.689 425.568 451.808 432.815 450.685C440.06 449.553 447.268 448.183 454.41 446.548C457.967 445.667 461.53 444.818 465.031 443.748C468.561 442.786 472.02 441.589 475.468 440.401C471.904 441.24 468.39 442.205 464.81 442.93Z" fill="white"/>
<path d="M153.806 384.921H291.902C296.139 384.921 299.955 387.402 301.561 391.2L343.846 491.198H420.197C422.332 491.198 424.063 492.875 424.063 494.943C424.063 497.012 422.332 498.689 420.197 498.689H199.769C195.698 498.689 192.006 496.373 190.341 492.774L145.891 396.767C143.316 391.206 147.515 384.921 153.806 384.921Z" fill="#07085B"/>
<path d="M354.15 190.736C354.15 190.736 340.618 191.159 354.819 180.072C369.02 168.986 407.146 155.986 431.585 168.489C431.585 168.489 436.472 158.423 443.537 160.826C450.601 163.23 438.943 170.155 438.943 170.155C438.943 170.155 447.964 169.873 450.717 174.161C452.752 177.33 447.228 177.469 444.208 177.326C449.343 178.173 469.031 190.219 459.15 228.681C455.637 227.933 435.624 199.816 435.624 199.816C435.624 199.816 389.854 224.451 394.381 204.862C394.381 204.862 346.963 233.532 353.691 209.849C353.692 209.849 335.355 211.151 354.15 190.736Z" fill="#07085B"/>
<path d="M459.19 228.913C459.19 228.913 455.399 227.622 451.323 230.756C447.247 233.89 447.698 244.902 447.698 244.902C447.698 244.902 428.242 257.057 430.293 205.622C432.475 150.902 446.523 210.011 446.523 210.011L459.19 228.913Z" fill="#07085B"/>
<path opacity="0.3" d="M199.539 179.8H57.8272C52.9322 179.8 48.9639 183.645 48.9639 188.387V245.047C48.9639 249.789 52.9322 253.634 57.8272 253.634H169.397C173.912 259.739 182.099 270.67 182.822 270.67C183.498 270.67 182.196 260.345 181.277 253.634H199.539C204.434 253.634 208.402 249.789 208.402 245.047V188.387C208.403 183.645 204.435 179.8 199.539 179.8Z" fill="#DAEEF7"/>
<path d="M193.688 165.103H51.9763C47.0813 165.103 43.1133 168.947 43.1133 173.69V230.35C43.1133 235.092 47.0813 238.937 51.9763 238.937H163.546C168.061 245.042 176.248 255.974 176.971 255.974C177.648 255.974 176.345 245.648 175.427 238.937H193.688C198.583 238.937 202.551 235.092 202.551 230.35V173.69C202.552 168.947 198.584 165.103 193.688 165.103Z" fill="#FF5B7E"/>
<path d="M82.1091 221.888C93.4294 217.298 98.7654 204.685 94.0275 193.718C89.2895 182.75 76.2717 177.58 64.9514 182.171C53.631 186.761 48.295 199.373 53.033 210.341C57.7709 221.309 70.7887 226.479 82.1091 221.888Z" fill="white"/>
<path d="M61.9624 202.585C61.9624 202.585 59.759 193.826 65.0078 190.545C70.2568 187.265 75.8612 186.514 79.6911 188.404C84.9999 191.024 87.1813 198.104 85.4827 202.019L71.3911 198.591L61.9624 202.585Z" fill="#040744"/>
<path d="M77.0443 212.867H70.52V219.178H77.0443V212.867Z" fill="#FFC0BB"/>
<path d="M77.0438 216.651V212.867H70.5195V216.086C71.9244 216.816 74.0042 217.236 77.0438 216.651Z" fill="#F99893"/>
<path d="M87.3308 201.571C86.6501 201.246 85.8601 201.304 85.1449 201.655C85.3904 195.427 80.1404 190.189 73.528 190.411C66.9156 190.189 61.6654 195.427 61.9112 201.655C61.196 201.304 60.4057 201.246 59.7253 201.571C58.4193 202.194 58.0133 203.979 58.8185 205.558C59.624 207.138 61.3354 207.913 62.6414 207.289C62.8228 207.203 62.9848 207.092 63.1309 206.964C63.8794 212.113 68.3189 215.972 73.5283 215.9C78.7377 215.972 83.1776 212.113 83.9258 206.964C84.0716 207.092 84.2335 207.203 84.415 207.289C85.721 207.913 87.4327 207.138 88.2379 205.558C89.0428 203.979 88.6368 202.194 87.3308 201.571Z" fill="#FFC0BB"/>
<path d="M77.797 208.927C77.5103 210.175 76.0353 211.156 74.2273 211.21C72.4193 211.263 70.8851 210.371 70.52 209.142L77.797 208.927Z" fill="white"/>
<path d="M61.911 201.655C61.911 201.655 70.4495 199.148 74.1867 194.964C74.1867 194.964 73.1289 200.005 72.3399 200.81C72.5891 200.97 80.8677 197.071 81.9925 193.472C83.1174 189.873 73.5279 188.58 73.5279 188.58C73.5279 188.58 70.2418 189.935 70.0756 190.015C69.9096 190.095 66.8273 190.444 66.4738 191.206C66.0139 192.197 63.838 192.285 63.838 192.285L62.4643 195.054L61.5029 197.968L61.911 201.655Z" fill="#040744"/>
<path d="M54.9165 190.259C56.8029 190.994 58.9809 191.335 61.2392 190.662C66.2216 189.179 68.1956 189.754 68.8584 190.119C69.2567 190.338 69.731 190.424 70.1656 190.283C70.6573 190.124 71.1132 189.694 70.9717 188.606C70.9717 188.606 71.1687 184.019 67.1104 181.406C62.0477 182.883 57.7469 186.063 54.9165 190.259Z" fill="#040744"/>
<path d="M65.6377 189.957L65.6364 189.956C65.4891 189.767 65.5355 189.497 65.7392 189.367C66.5716 188.837 68.7127 187.644 71.2835 187.517C71.5245 187.505 71.727 187.692 71.727 187.927C71.727 188.144 71.5504 188.323 71.3259 188.334C68.9762 188.453 66.9617 189.575 66.2028 190.054C66.0177 190.171 65.7713 190.128 65.6377 189.957Z" fill="#5FB2F6"/>
<path d="M128.971 187.215H100.955C100.472 187.215 100.08 186.835 100.08 186.367V184.322C100.08 183.854 100.472 183.474 100.955 183.474H128.971C129.455 183.474 129.846 183.853 129.846 184.322V186.367C129.846 186.835 129.454 187.215 128.971 187.215Z" fill="white"/>
<path d="M119.312 197.086H100.955C100.472 197.086 100.08 196.706 100.08 196.238V194.192C100.08 193.724 100.472 193.344 100.955 193.344H119.312C119.795 193.344 120.187 193.724 120.187 194.192V196.238C120.187 196.706 119.795 197.086 119.312 197.086Z" fill="white"/>
<path d="M147.522 197.086H124.529C124.045 197.086 123.654 196.706 123.654 196.238V194.192C123.654 193.724 124.046 193.344 124.529 193.344H147.522C148.005 193.344 148.397 193.724 148.397 194.192V196.238C148.397 196.706 148.005 197.086 147.522 197.086Z" fill="white"/>
<path d="M184.343 187.215H135.654C135.17 187.215 134.779 186.835 134.779 186.367V184.322C134.779 183.854 135.17 183.474 135.654 183.474H184.343C184.826 183.474 185.218 183.853 185.218 184.322V186.367C185.218 186.835 184.826 187.215 184.343 187.215Z" fill="white"/>
<path d="M184.343 216.434H100.955C100.472 216.434 100.08 216.054 100.08 215.586V213.541C100.08 213.073 100.472 212.693 100.955 212.693H184.343C184.826 212.693 185.218 213.073 185.218 213.541V215.586C185.218 216.054 184.826 216.434 184.343 216.434Z" fill="white"/>
<path d="M143.187 206.956H100.955C100.472 206.956 100.08 206.577 100.08 206.109V204.063C100.08 203.595 100.472 203.216 100.955 203.216H143.187C143.67 203.216 144.062 203.595 144.062 204.063V206.109C144.062 206.577 143.671 206.956 143.187 206.956Z" fill="white"/>
<path d="M184.343 206.956H151.371C150.888 206.956 150.496 206.577 150.496 206.109V204.063C150.496 203.595 150.888 203.216 151.371 203.216H184.343C184.826 203.216 185.218 203.595 185.218 204.063V206.109C185.218 206.577 184.826 206.956 184.343 206.956Z" fill="white"/>
<path d="M233.351 453.375C238.067 452.412 240.788 446.565 239.428 440.315C238.068 434.065 233.142 429.78 228.426 430.743C223.71 431.707 220.99 437.554 222.35 443.804C223.71 450.053 228.635 454.339 233.351 453.375Z" fill="white"/>
<path d="M184.67 103.349L187.624 124.916L171.812 113.728L123.417 89.775L160.85 93.0953C160.85 93.0953 179.92 97.5836 180.952 98.4887C181.984 99.3938 184.67 103.349 184.67 103.349Z" fill="#C12F56"/>
<path d="M201.246 90.3249L123.417 89.7744L184.67 103.349L201.246 90.3249Z" fill="#FF5B7E"/>
<path d="M159.651 125.045L180.044 109.175L123.417 89.7744L159.651 125.045Z" fill="#FF5B7E"/>
<path d="M280.926 219.912L279.899 218.441C281.472 217.41 282.913 216.146 284.183 214.685L285.585 215.828C284.207 217.415 282.64 218.789 280.926 219.912Z" fill="#5FB2F6"/>
<path d="M291.225 205.439L289.476 204.907C290.537 201.632 291.239 197.913 291.561 193.853L293.388 193.989C293.056 198.183 292.328 202.035 291.225 205.439ZM293.327 182.383L291.503 182.562C291.453 182.075 291.394 181.589 291.327 181.103C291.101 179.45 290.774 177.781 290.357 176.14C289.972 174.628 289.501 173.106 288.956 171.615L290.684 171.022C291.249 172.568 291.738 174.147 292.137 175.715C292.57 177.418 292.909 179.152 293.145 180.868C293.212 181.359 293.273 181.869 293.327 182.383ZM283.926 161.471C281.967 158.37 279.629 155.319 276.978 152.402L278.354 151.229C281.075 154.222 283.475 157.356 285.489 160.544L283.926 161.471ZM226.662 157.27C225.414 157.569 222.235 157.637 220.194 156.458C218.668 155.577 217.398 154.193 216.521 152.456L218.167 151.675C218.898 153.122 219.896 154.218 221.132 154.933C222.604 155.783 225.228 155.784 226.223 155.546C226.356 155.515 226.407 155.49 226.407 155.49C226.484 155.442 226.577 155.384 226.668 155.325L227.686 156.802C227.581 156.869 227.476 156.936 227.369 157.001C227.189 157.111 226.957 157.2 226.662 157.27ZM268.626 144.477C265.709 142.072 262.551 139.788 259.24 137.689L260.244 136.203C263.619 138.343 266.839 140.672 269.814 143.125L268.626 144.477ZM234.289 146.824L232.495 146.459C232.732 145.365 232.853 144.249 232.856 143.143C232.86 141.584 232.654 139.974 232.243 138.358C232.019 137.481 231.732 136.587 231.388 135.7L233.103 135.075C233.473 136.027 233.782 136.989 234.022 137.933C234.469 139.69 234.694 141.444 234.689 143.148C234.686 144.375 234.551 145.611 234.289 146.824ZM218.177 141.359L216.523 140.593C218.184 137.228 221.305 134.28 225.086 132.506L225.338 132.389L226.118 133.997L225.885 134.104C222.471 135.707 219.662 138.351 218.177 141.359ZM248.584 133.397C245.26 132.413 242.622 131.816 241.344 131.757C239.879 131.689 238.539 131.674 237.248 131.712L237.192 129.938C238.531 129.898 239.918 129.913 241.431 129.983C243.38 130.073 247.084 131.096 249.119 131.699L248.584 133.397ZM225.446 126.209C222.947 123.373 220.023 120.909 216.756 118.884L217.743 117.388C221.163 119.507 224.223 122.087 226.84 125.056L225.446 126.209Z" fill="#5FB2F6"/>
<path d="M206.242 114.335C204.314 113.822 202.368 113.466 200.456 113.278L200.641 111.511C202.654 111.709 204.702 112.083 206.728 112.623L206.242 114.335Z" fill="#5FB2F6"/>
<path d="M122.153 365.421C122.153 365.421 121.478 371.865 116.229 372.31C121.478 372.756 122.153 379.2 122.153 379.2C122.153 379.2 122.827 372.756 128.076 372.31C122.827 371.865 122.153 365.421 122.153 365.421Z" fill="#FF5B7E"/>
<path d="M319.731 273.566C319.731 273.566 318.657 283.826 310.3 284.536C318.656 285.246 319.731 295.507 319.731 295.507C319.731 295.507 320.805 285.246 329.162 284.536C320.805 283.827 319.731 273.566 319.731 273.566Z" fill="#0C7FDA"/>
<path d="M30.815 149.63C30.815 149.63 29.7408 159.891 21.3838 160.601C29.7408 161.31 30.815 171.571 30.815 171.571C30.815 171.571 31.8889 161.31 40.2462 160.601C31.8892 159.891 30.815 149.63 30.815 149.63Z" fill="#0C7FDA"/>
<path d="M232.871 235.457C232.871 235.457 232.052 244.547 225.679 245.176C232.052 245.805 232.871 254.896 232.871 254.896C232.871 254.896 233.69 245.805 240.064 245.176C233.69 244.547 232.871 235.457 232.871 235.457Z" fill="#5FB2F6"/>
<path d="M67.5162 102.554C67.5162 102.554 66.697 111.645 60.3237 112.274C66.697 112.902 67.5162 121.993 67.5162 121.993C67.5162 121.993 68.3355 112.902 74.7088 112.274C68.3352 111.645 67.5162 102.554 67.5162 102.554Z" fill="#5FB2F6"/>
<path d="M490.349 188.554C490.349 192.377 486.799 195.476 482.421 195.476C478.042 195.476 474.492 192.377 474.492 188.554C474.492 184.73 478.042 181.631 482.421 181.631C486.799 181.631 490.349 184.73 490.349 188.554Z" fill="#E6F7FF"/>
</g>
<defs>
<clipPath id="clip0_694_1659">
<rect width="610" height="591" fill="white"/>
</clipPath>
</defs>
</svg>
