<svg width="33" height="33" viewBox="0 0 33 33" fill="none" xmlns="http://www.w3.org/2000/svg">
<path d="M9.08616 21.3384C7.40939 22.3212 3.01302 24.328 5.69071 26.8392C6.99874 28.0658 8.45554 28.9432 10.2871 28.9432H20.7383C22.5699 28.9432 24.0267 28.0658 25.3347 26.8392C28.0125 24.328 23.6161 22.3212 21.9393 21.3384C18.0073 19.0337 13.0181 19.0337 9.08616 21.3384Z" stroke="#0C7FDA" stroke-width="1.5" stroke-linecap="round" stroke-linejoin="round"/>
<path d="M20.846 10.2767C20.846 13.2222 18.4582 15.61 15.5127 15.61C12.5672 15.61 10.1794 13.2222 10.1794 10.2767C10.1794 7.33117 12.5672 4.94336 15.5127 4.94336C18.4582 4.94336 20.846 7.33117 20.846 10.2767Z" stroke="#0C7FDA" stroke-width="1.5"/>
<path d="M24.8461 8.32814C24.8461 7.19524 25.7415 6.27686 26.8461 6.27686C27.9506 6.27686 28.8461 7.19524 28.8461 8.32814C28.8461 8.7365 28.7297 9.11699 28.5291 9.43664C27.9315 10.3893 26.8461 11.2978 26.8461 12.4307V12.9435" stroke="#0C7FDA" stroke-width="1.5" stroke-linecap="round"/>
<path d="M26.8458 15.6099H26.8578" stroke="#0C7FDA" stroke-width="1.5" stroke-linecap="round" stroke-linejoin="round"/>
</svg>
